# xmcd CD database file
#
# Track frame offsets:
#	150
#	28027
#	50957
#	71907
#	88530
#	110295
#	136147
#	155097
#	173965
#	193667
#	217230
#
# Disc length: 3255 seconds
#
# Revision: 11
# Processed by: cddbd v1.5.1PL0 Copyright (c) Steve Scherf et al.
# Submitted via: CDex 1.51
#
DISCID=a80cb50b
DTITLE=Aerosmith - A Little South Of Sanity  Disc2
DYEAR=1998
DGENRE=Hard Rock
TTITLE0=Back In The Saddle
TTITLE1=Last Child
TTITLE2=The Other Side
TTITLE3=Walk On Down
TTITLE4=Dream On
TTITLE5=Crazy
TTITLE6=Mama Kin
TTITLE7=Walk This Way
TTITLE8=Dude (Looks Like A Lady)
TTITLE9=What It Takes
TTITLE10=Sweet Emotion
EXTD=YEAR: 1998
EXTT0=
EXTT1=
EXTT2=
EXTT3=
EXTT4=
EXTT5=
EXTT6=
EXTT7=
EXTT8=
EXTT9=
EXTT10=
PLAYORDER=
